<svg width="95" height="31" viewBox="0 0 95 31" fill="none" xmlns="http://www.w3.org/2000/svg">
<path d="M17.666 30V25.75H8.418C14.3 21.466 17.496 18.1 17.496 14.224C17.496 9.702 13.654 6.982 8.826 6.982C5.664 6.982 2.298 8.138 0.0880001 10.688L2.842 13.884C4.372 12.286 6.344 11.266 8.928 11.266C10.798 11.266 12.6 12.252 12.6 14.224C12.6 17.012 9.88 19.358 0.598 26.226V30H17.666ZM38.7327 30V25.75H29.4847C35.3667 21.466 38.5627 18.1 38.5627 14.224C38.5627 9.702 34.7207 6.982 29.8927 6.982C26.7307 6.982 23.3647 8.138 21.1547 10.688L23.9087 13.884C25.4387 12.286 27.4107 11.266 29.9947 11.266C31.8647 11.266 33.6667 12.252 33.6667 14.224C33.6667 17.012 30.9467 19.358 21.6647 26.226V30H38.7327ZM50.5514 30L58.9834 10.688V7.322H41.9494V11.572H53.3734L45.2474 30H50.5514ZM70.8808 30.408C77.3408 30.408 80.2648 24.526 80.2648 18.678C80.2648 12.83 77.3408 6.982 70.8808 6.982C64.3868 6.982 61.4968 12.83 61.4968 18.678C61.4968 24.526 64.3868 30.408 70.8808 30.408ZM70.8808 26.124C67.6168 26.124 66.3928 22.86 66.3928 18.678C66.3928 14.496 67.6168 11.266 70.8808 11.266C74.1108 11.266 75.3348 14.496 75.3348 18.678C75.3348 22.86 74.1108 26.124 70.8808 26.124Z" fill="#333333"/>
<path d="M87.7488 17.726H89.8568V15.856C92.8828 15.516 94.5488 13.952 94.5488 11.606C94.5488 8.75 92.1008 7.934 89.8568 7.424V4.432C90.7748 4.704 91.6248 5.18 92.2368 5.758L94.0388 3.888C93.1888 2.936 91.7948 2.222 89.8568 1.984V0.011999H87.7488V1.916C84.7228 2.154 82.9208 3.99 82.9208 5.962C82.9208 8.954 85.4708 9.668 87.7488 10.178V13.374C86.4228 13.136 85.3008 12.388 84.4848 11.606L82.6828 13.714C83.7708 14.904 85.4708 15.72 87.7488 15.89V17.726ZM86.2868 5.656C86.2868 5.044 86.8308 4.534 87.7488 4.33V6.914C86.8648 6.642 86.2868 6.302 86.2868 5.656ZM91.1828 12.014C91.1828 12.592 90.7068 13.102 89.8568 13.34V10.688C90.6388 10.96 91.1828 11.334 91.1828 12.014Z" fill="url(#paint0_linear)"/>
<defs>
<linearGradient id="paint0_linear" x1="53.3788" y1="-1" x2="53.3788" y2="45.8839" gradientUnits="userSpaceOnUse">
<stop stop-color="#F2A04A"/>
<stop offset="1" stop-color="#F2C24D"/>
</linearGradient>
</defs>
</svg>
