<svg width="134" height="44" viewBox="0 0 134 44" fill="none" xmlns="http://www.w3.org/2000/svg">
<path d="M25.352 43V37H12.296C20.6 30.952 25.112 26.2 25.112 20.728C25.112 14.344 19.688 10.504 12.872 10.504C8.408 10.504 3.656 12.136 0.536 15.736L4.424 20.248C6.584 17.992 9.368 16.552 13.016 16.552C15.656 16.552 18.2 17.944 18.2 20.728C18.2 24.664 14.36 27.976 1.256 37.672V43H25.352ZM55.0933 43V37H42.0372C50.3412 30.952 54.8533 26.2 54.8533 20.728C54.8533 14.344 49.4292 10.504 42.6132 10.504C38.1492 10.504 33.3972 12.136 30.2772 15.736L34.1652 20.248C36.3252 17.992 39.1092 16.552 42.7572 16.552C45.3972 16.552 47.9412 17.944 47.9412 20.728C47.9412 24.664 44.1012 27.976 30.9972 37.672V43H55.0933ZM71.7785 43L83.6825 15.736V10.984H59.6345V16.984H75.7625L64.2905 43H71.7785ZM100.479 43.576C109.599 43.576 113.727 35.272 113.727 27.016C113.727 18.76 109.599 10.504 100.479 10.504C91.3107 10.504 87.2307 18.76 87.2307 27.016C87.2307 35.272 91.3107 43.576 100.479 43.576ZM100.479 37.528C95.8707 37.528 94.1427 32.92 94.1427 27.016C94.1427 21.112 95.8707 16.552 100.479 16.552C105.039 16.552 106.767 21.112 106.767 27.016C106.767 32.92 105.039 37.528 100.479 37.528Z" fill="#333333"/>
<path d="M124.292 25.672H127.268V23.032C131.54 22.552 133.892 20.344 133.892 17.032C133.892 13 130.436 11.848 127.268 11.128V6.904C128.564 7.288 129.764 7.96 130.628 8.776L133.172 6.136C131.972 4.792 130.004 3.784 127.268 3.448V0.663999H124.292V3.352C120.02 3.688 117.476 6.28 117.476 9.064C117.476 13.288 121.076 14.296 124.292 15.016V19.528C122.42 19.192 120.836 18.136 119.684 17.032L117.14 20.008C118.676 21.688 121.076 22.84 124.292 23.08V25.672ZM122.228 8.632C122.228 7.768 122.996 7.048 124.292 6.76V10.408C123.044 10.024 122.228 9.544 122.228 8.632ZM129.14 17.608C129.14 18.424 128.468 19.144 127.268 19.48V15.736C128.372 16.12 129.14 16.648 129.14 17.608Z" fill="url(#paint0_linear)"/>
<defs>
<linearGradient id="paint0_linear" x1="67.5" y1="-1" x2="67.5" y2="58" gradientUnits="userSpaceOnUse">
<stop stop-color="#F2A04A"/>
<stop offset="1" stop-color="#F2C24D"/>
</linearGradient>
</defs>
</svg>
