<svg width="94" height="31" viewBox="0 0 94 31" fill="none" xmlns="http://www.w3.org/2000/svg">
<path d="M18.3423 30V25.75H9.09427C14.9763 21.466 18.1723 18.1 18.1723 14.224C18.1723 9.702 14.3303 6.982 9.50227 6.982C6.34027 6.982 2.97427 8.138 0.76427 10.688L3.51827 13.884C5.04827 12.286 7.02027 11.266 9.60427 11.266C11.4743 11.266 13.2763 12.252 13.2763 14.224C13.2763 17.012 10.5563 19.358 1.27427 26.226V30H18.3423ZM30.161 30L38.593 10.688V7.322H21.559V11.572H32.983L24.857 30H30.161ZM49.3683 30L57.8003 10.688V7.322H40.7663V11.572H52.1903L44.0643 30H49.3683ZM69.6977 30.408C76.1577 30.408 79.0817 24.526 79.0817 18.678C79.0817 12.83 76.1577 6.982 69.6977 6.982C63.2037 6.982 60.3137 12.83 60.3137 18.678C60.3137 24.526 63.2037 30.408 69.6977 30.408ZM69.6977 26.124C66.4337 26.124 65.2097 22.86 65.2097 18.678C65.2097 14.496 66.4337 11.266 69.6977 11.266C72.9277 11.266 74.1517 14.496 74.1517 18.678C74.1517 22.86 72.9277 26.124 69.6977 26.124Z" fill="#333333"/>
<path d="M86.5657 17.726H88.6737V15.856C91.6997 15.516 93.3657 13.952 93.3657 11.606C93.3657 8.75 90.9177 7.934 88.6737 7.424V4.432C89.5917 4.704 90.4417 5.18 91.0537 5.758L92.8557 3.888C92.0057 2.936 90.6117 2.222 88.6737 1.984V0.011999H86.5657V1.916C83.5397 2.154 81.7377 3.99 81.7377 5.962C81.7377 8.954 84.2877 9.668 86.5657 10.178V13.374C85.2397 13.136 84.1177 12.388 83.3017 11.606L81.4997 13.714C82.5877 14.904 84.2877 15.72 86.5657 15.89V17.726ZM85.1037 5.656C85.1037 5.044 85.6477 4.534 86.5657 4.33V6.914C85.6817 6.642 85.1037 6.302 85.1037 5.656ZM89.9997 12.014C89.9997 12.592 89.5237 13.102 88.6737 13.34V10.688C89.4557 10.96 89.9997 11.334 89.9997 12.014Z" fill="url(#paint0_linear)"/>
<defs>
<linearGradient id="paint0_linear" x1="53.2613" y1="-1" x2="53.2613" y2="45.8839" gradientUnits="userSpaceOnUse">
<stop stop-color="#F2A04A"/>
<stop offset="1" stop-color="#F2C24D"/>
</linearGradient>
</defs>
</svg>
