<svg width="132" height="44" viewBox="0 0 132 44" fill="none" xmlns="http://www.w3.org/2000/svg">
<path d="M25.352 43V37H12.296C20.6 30.952 25.112 26.2 25.112 20.728C25.112 14.344 19.688 10.504 12.872 10.504C8.408 10.504 3.656 12.136 0.536 15.736L4.424 20.248C6.584 17.992 9.368 16.552 13.016 16.552C15.656 16.552 18.2 17.944 18.2 20.728C18.2 24.664 14.36 27.976 1.256 37.672V43H25.352ZM42.0372 43L53.9412 15.736V10.984H29.8932V16.984H46.0212L34.5492 43H42.0372ZM69.1535 43L81.0575 15.736V10.984H57.0095V16.984H73.1375L61.6655 43H69.1535ZM97.8537 43.576C106.974 43.576 111.102 35.272 111.102 27.016C111.102 18.76 106.974 10.504 97.8537 10.504C88.6857 10.504 84.6057 18.76 84.6057 27.016C84.6057 35.272 88.6857 43.576 97.8537 43.576ZM97.8537 37.528C93.2457 37.528 91.5177 32.92 91.5177 27.016C91.5177 21.112 93.2457 16.552 97.8537 16.552C102.414 16.552 104.142 21.112 104.142 27.016C104.142 32.92 102.414 37.528 97.8537 37.528Z" fill="#333333"/>
<path d="M121.667 25.672H124.643V23.032C128.915 22.552 131.267 20.344 131.267 17.032C131.267 13 127.811 11.848 124.643 11.128V6.904C125.939 7.288 127.139 7.96 128.003 8.776L130.547 6.136C129.347 4.792 127.379 3.784 124.643 3.448V0.663999H121.667V3.352C117.395 3.688 114.851 6.28 114.851 9.064C114.851 13.288 118.451 14.296 121.667 15.016V19.528C119.795 19.192 118.211 18.136 117.059 17.032L114.515 20.008C116.051 21.688 118.451 22.84 121.667 23.08V25.672ZM119.603 8.632C119.603 7.768 120.371 7.048 121.667 6.76V10.408C120.419 10.024 119.603 9.544 119.603 8.632ZM126.515 17.608C126.515 18.424 125.843 19.144 124.643 19.48V15.736C125.747 16.12 126.515 16.648 126.515 17.608Z" fill="url(#paint0_linear)"/>
<defs>
<linearGradient id="paint0_linear" x1="66.5" y1="-1" x2="66.5" y2="58" gradientUnits="userSpaceOnUse">
<stop stop-color="#F2A04A"/>
<stop offset="1" stop-color="#F2C24D"/>
</linearGradient>
</defs>
</svg>
