<svg width="57" height="58" viewBox="0 0 57 58" fill="none" xmlns="http://www.w3.org/2000/svg">
<path d="M49.004 46.6396C47.3682 46.6396 46.0372 47.985 46.0372 49.6388C46.0372 51.2924 47.3681 52.6378 49.004 52.6378C50.6399 52.6378 51.9707 51.2924 51.9707 49.6388C51.9707 47.9851 50.6399 46.6396 49.004 46.6396ZM49.0039 50.8604C48.3376 50.8604 47.7955 50.3123 47.7955 49.6388C47.7955 48.9652 48.3376 48.4171 49.0039 48.4171C49.6702 48.4171 50.2124 48.9652 50.2124 49.6388C50.2124 50.3123 49.6702 50.8604 49.0039 50.8604Z" fill="white"/>
<path d="M56.9973 49.4835C56.9413 47.2878 56.0219 45.2682 54.4085 43.797L36.7083 27.6584L52.3585 11.8378C52.4613 11.8067 52.563 11.7681 52.661 11.7158L56.0501 9.90757C56.5183 9.65767 56.8322 9.21066 56.9113 8.68152C56.9904 8.15228 56.821 7.63163 56.4467 7.25282L52.6308 3.39548C52.2563 3.01701 51.7416 2.84584 51.2176 2.92582C50.6941 3.00568 50.2521 3.32309 50.0047 3.7965L48.2159 7.22224C48.1637 7.32226 48.1236 7.42569 48.0928 7.5307L40.7057 14.9982C40.3624 15.3454 40.3624 15.908 40.7057 16.2552C41.0492 16.602 41.6057 16.602 41.9492 16.2552L48.7279 9.40245L50.5044 11.1983L33.1687 28.7229L31.3922 26.9271L38.959 19.2779C39.3024 18.9306 39.3024 18.3681 38.959 18.0209C38.6156 17.674 38.0591 17.674 37.7156 18.0209L32.2253 23.571L26.25 18.1228C27.9442 13.1933 26.7173 7.70878 23.0423 3.99383C19.2781 0.188602 13.6311 -1.02407 8.65587 0.904766C8.37785 1.01261 8.17267 1.25526 8.11081 1.54968C8.04895 1.84409 8.13849 2.15018 8.34905 2.36304L15.2511 9.34037C15.4553 9.54677 15.5679 9.82125 15.5679 10.1132C15.5679 10.4051 15.4554 10.6796 15.2511 10.8861L10.7688 15.4172C10.5646 15.6237 10.2931 15.7375 10.0043 15.7375C9.71552 15.7375 9.444 15.6239 9.23971 15.4172L2.33757 8.4399C2.12689 8.22704 1.82433 8.13653 1.53297 8.19906C1.24173 8.2617 1.00169 8.46901 0.895012 8.75006C-1.01304 13.7793 0.186566 19.4878 3.9509 23.2932C7.53583 26.9171 12.8561 28.193 17.6558 26.6253L22.2757 31.7323C22.0537 32.1708 21.765 32.5798 21.409 32.9397C20.0773 34.2859 18.0814 34.71 16.3237 34.0204C15.9989 33.8926 15.6303 33.9712 15.3838 34.2203L4.61934 45.102C1.70532 48.0479 1.70532 52.8411 4.61934 55.7867C6.03119 57.2142 7.90809 58 9.90445 58C11.9007 58 13.7777 57.2142 15.1893 55.7872L25.9538 44.9056C26.2001 44.6565 26.2777 44.2838 26.1515 43.9554C25.4692 42.1787 25.8888 40.1608 27.2204 38.8146C28.5523 37.4683 30.5483 37.0442 32.3059 37.7339C32.631 37.8616 32.9993 37.7828 33.2459 37.5339L35.2764 35.4813C35.8878 34.8632 36.2244 34.0414 36.2244 33.1674C36.2244 32.2934 35.8878 31.4716 35.2764 30.8535L34.4121 29.9798L35.4635 28.9168L53.231 45.1169C54.4829 46.2584 55.1964 47.8255 55.2398 49.5293C55.2831 51.233 54.6504 52.8352 53.4582 54.0403C52.2717 55.2399 50.6909 55.8784 49.0166 55.8418C47.3389 55.8039 45.7914 55.0937 44.659 53.8418L31.4483 39.2381C31.1203 38.8757 30.5645 38.8508 30.2062 39.1821C29.848 39.5134 29.8231 40.0755 30.1508 40.4377L43.3613 55.0413C44.8208 56.6546 46.8153 57.5699 48.9773 57.6187C49.0378 57.6201 49.0982 57.6207 49.1586 57.6207C51.2528 57.6207 53.215 56.7996 54.7015 55.2971C56.2379 53.7439 57.0531 51.6792 56.9973 49.4835ZM49.8082 7.98065L51.4912 4.75735L55.0995 8.40489L51.9109 10.1063L49.8082 7.98065ZM18.5629 24.9943C18.3209 24.7269 17.9428 24.6347 17.6068 24.7613C13.3078 26.3824 8.43523 25.3128 5.1941 22.0367C2.25117 19.0616 1.11084 14.7485 2.11569 10.7295L7.99629 16.6742C8.53272 17.2164 9.24576 17.5149 10.0042 17.5149C10.7626 17.5149 11.4757 17.2164 12.012 16.6742L16.4943 12.1431C17.0306 11.6008 17.3259 10.88 17.3259 10.1133C17.3259 9.3466 17.0306 8.62579 16.4943 8.08363L10.6138 2.13874C14.5891 1.12249 18.8562 2.27558 21.799 5.25069C25.1226 8.61027 26.1439 13.6338 24.4013 18.049C24.2649 18.3944 24.3557 18.7892 24.629 19.0383L30.9805 24.8294L30.1487 25.6702L29.2844 24.7965C28.673 24.1784 27.86 23.8381 26.9955 23.8381C26.1309 23.8381 25.3179 24.1784 24.7065 24.7965L22.676 26.8491C22.4297 27.0982 22.352 27.4709 22.4782 27.7993C22.7121 28.4082 22.8135 29.0451 22.7961 29.6739L18.5629 24.9943ZM34.0329 34.2244L32.3876 35.8877C30.1249 35.2283 27.6627 35.8539 25.9772 37.5576H25.9771C24.2917 39.2615 23.6728 41.7501 24.3253 44.038L13.946 54.5301C12.8664 55.6214 11.4312 56.2225 9.90456 56.2225C8.37796 56.2225 6.94247 55.6214 5.8631 54.5301C3.63456 52.2774 3.63456 48.6118 5.8631 46.359L16.2423 35.8668C18.5052 36.5265 20.9671 35.9005 22.6527 34.1968C24.3381 32.4929 24.9571 30.0042 24.3046 27.7165L25.9499 26.0533C26.5264 25.4704 27.4647 25.4704 28.0411 26.0533L29.5271 27.5555L32.5468 30.6081L34.0329 32.1104C34.6095 32.6933 34.6095 33.6417 34.0329 34.2244Z" fill="white"/>
<path d="M18.0029 39.2236C17.6594 38.8766 17.1029 38.8766 16.7595 39.2236L8.43134 47.6425C8.08799 47.9897 8.08799 48.5522 8.43134 48.8994C8.60302 49.0729 8.82815 49.1596 9.05305 49.1596C9.27796 49.1596 9.50309 49.0729 9.67477 48.8994L18.0029 40.4806C18.3461 40.1334 18.3461 39.5707 18.0029 39.2236Z" fill="white"/>
<path d="M21.0799 42.334C20.7366 41.987 20.1799 41.987 19.8365 42.334L11.5084 50.7527C11.165 51.0999 11.165 51.6625 11.5084 52.0097C11.68 52.1831 11.9051 52.2699 12.1301 52.2699C12.355 52.2699 12.5801 52.1831 12.7518 52.0097L21.0799 43.5909C21.4233 43.2437 21.4233 42.6812 21.0799 42.334Z" fill="white"/>
</svg>
